<mxfile host="app.diagrams.net" modified="2023-12-11T10:19:24.811Z" agent="Mozilla/5.0 (Windows NT 10.0; Win64; x64) AppleWebKit/537.36 (KHTML, like Gecko) Chrome/118.0.5993.731 YaBrowser/23.11.1.731 Yowser/2.5 Safari/537.36" etag="nk2IYws7XCKCi1TaYfBH" version="22.1.7" type="device">
  <diagram name="Page-1" id="c37626ed-c26b-45fb-9056-f9ebc6bb27b6">
    <mxGraphModel dx="2625" dy="2268" grid="1" gridSize="10" guides="1" tooltips="1" connect="1" arrows="1" fold="1" page="1" pageScale="1" pageWidth="1100" pageHeight="850" background="none" math="0" shadow="0">
      <root>
        <mxCell id="0" />
        <mxCell id="1" parent="0" />
        <mxCell id="8PStyAI-8pMgiDC35i6X-1" value="" style="shape=mxgraph.cisco.computers_and_peripherals.laptop;sketch=0;html=1;pointerEvents=1;dashed=0;fillColor=#036897;strokeColor=#ffffff;strokeWidth=2;verticalLabelPosition=bottom;verticalAlign=top;align=center;outlineConnect=0;" vertex="1" parent="1">
          <mxGeometry x="1740" y="850" width="90" height="61" as="geometry" />
        </mxCell>
        <mxCell id="8PStyAI-8pMgiDC35i6X-2" value="" style="shape=mxgraph.cisco.computers_and_peripherals.laptop;sketch=0;html=1;pointerEvents=1;dashed=0;fillColor=#036897;strokeColor=#ffffff;strokeWidth=2;verticalLabelPosition=bottom;verticalAlign=top;align=center;outlineConnect=0;" vertex="1" parent="1">
          <mxGeometry x="354" y="840" width="90" height="61" as="geometry" />
        </mxCell>
        <mxCell id="8PStyAI-8pMgiDC35i6X-3" value="" style="shape=mxgraph.cisco.computers_and_peripherals.laptop;sketch=0;html=1;pointerEvents=1;dashed=0;fillColor=#036897;strokeColor=#ffffff;strokeWidth=2;verticalLabelPosition=bottom;verticalAlign=top;align=center;outlineConnect=0;" vertex="1" parent="1">
          <mxGeometry x="1028" y="-290" width="90" height="61" as="geometry" />
        </mxCell>
        <mxCell id="8PStyAI-8pMgiDC35i6X-6" value="" style="shape=mxgraph.cisco.routers.router;sketch=0;html=1;pointerEvents=1;dashed=0;fillColor=#036897;strokeColor=#ffffff;strokeWidth=2;verticalLabelPosition=bottom;verticalAlign=top;align=center;outlineConnect=0;" vertex="1" parent="1">
          <mxGeometry x="360" y="430" width="78" height="53" as="geometry" />
        </mxCell>
        <mxCell id="8PStyAI-8pMgiDC35i6X-7" value="" style="shape=mxgraph.cisco.routers.router;sketch=0;html=1;pointerEvents=1;dashed=0;fillColor=#036897;strokeColor=#ffffff;strokeWidth=2;verticalLabelPosition=bottom;verticalAlign=top;align=center;outlineConnect=0;" vertex="1" parent="1">
          <mxGeometry x="1740" y="425" width="78" height="53" as="geometry" />
        </mxCell>
        <mxCell id="8PStyAI-8pMgiDC35i6X-8" value="" style="shape=mxgraph.cisco.routers.router;sketch=0;html=1;pointerEvents=1;dashed=0;fillColor=#036897;strokeColor=#ffffff;strokeWidth=2;verticalLabelPosition=bottom;verticalAlign=top;align=center;outlineConnect=0;" vertex="1" parent="1">
          <mxGeometry x="1040" y="40" width="78" height="53" as="geometry" />
        </mxCell>
        <mxCell id="8PStyAI-8pMgiDC35i6X-10" value="" style="endArrow=none;html=1;rounded=0;exitX=0.5;exitY=0;exitDx=0;exitDy=0;exitPerimeter=0;" edge="1" parent="1" source="8PStyAI-8pMgiDC35i6X-6" target="8PStyAI-8pMgiDC35i6X-8">
          <mxGeometry width="50" height="50" relative="1" as="geometry">
            <mxPoint x="1250" y="390" as="sourcePoint" />
            <mxPoint x="1300" y="340" as="targetPoint" />
            <Array as="points" />
          </mxGeometry>
        </mxCell>
        <mxCell id="8PStyAI-8pMgiDC35i6X-11" value="" style="endArrow=none;html=1;rounded=0;" edge="1" parent="1" source="8PStyAI-8pMgiDC35i6X-28" target="8PStyAI-8pMgiDC35i6X-7">
          <mxGeometry width="50" height="50" relative="1" as="geometry">
            <mxPoint x="1250" y="390" as="sourcePoint" />
            <mxPoint x="1300" y="340" as="targetPoint" />
          </mxGeometry>
        </mxCell>
        <mxCell id="8PStyAI-8pMgiDC35i6X-12" value="" style="endArrow=none;html=1;rounded=0;entryX=0.5;entryY=1;entryDx=0;entryDy=0;entryPerimeter=0;" edge="1" parent="1" source="8PStyAI-8pMgiDC35i6X-2" target="8PStyAI-8pMgiDC35i6X-6">
          <mxGeometry width="50" height="50" relative="1" as="geometry">
            <mxPoint x="810" y="790" as="sourcePoint" />
            <mxPoint x="860" y="740" as="targetPoint" />
          </mxGeometry>
        </mxCell>
        <mxCell id="8PStyAI-8pMgiDC35i6X-13" value="" style="endArrow=none;html=1;rounded=0;exitX=1;exitY=0.5;exitDx=0;exitDy=0;exitPerimeter=0;" edge="1" parent="1" source="8PStyAI-8pMgiDC35i6X-8" target="8PStyAI-8pMgiDC35i6X-7">
          <mxGeometry width="50" height="50" relative="1" as="geometry">
            <mxPoint x="1250" y="390" as="sourcePoint" />
            <mxPoint x="1300" y="340" as="targetPoint" />
          </mxGeometry>
        </mxCell>
        <mxCell id="8PStyAI-8pMgiDC35i6X-14" value="" style="endArrow=none;html=1;rounded=0;exitX=0.5;exitY=0;exitDx=0;exitDy=0;exitPerimeter=0;" edge="1" parent="1" source="8PStyAI-8pMgiDC35i6X-33" target="8PStyAI-8pMgiDC35i6X-7">
          <mxGeometry width="50" height="50" relative="1" as="geometry">
            <mxPoint x="1250" y="390" as="sourcePoint" />
            <mxPoint x="1300" y="340" as="targetPoint" />
            <Array as="points" />
          </mxGeometry>
        </mxCell>
        <mxCell id="8PStyAI-8pMgiDC35i6X-15" value="" style="endArrow=none;html=1;rounded=0;" edge="1" parent="1" source="8PStyAI-8pMgiDC35i6X-8" target="8PStyAI-8pMgiDC35i6X-3">
          <mxGeometry width="50" height="50" relative="1" as="geometry">
            <mxPoint x="1250" y="390" as="sourcePoint" />
            <mxPoint x="1300" y="340" as="targetPoint" />
          </mxGeometry>
        </mxCell>
        <mxCell id="8PStyAI-8pMgiDC35i6X-17" value="&lt;font style=&quot;font-size: 33px;&quot;&gt;eth1&lt;/font&gt;" style="text;strokeColor=none;align=center;fillColor=none;html=1;verticalAlign=middle;whiteSpace=wrap;rounded=0;" vertex="1" parent="1">
          <mxGeometry x="334" y="750" width="130" height="30" as="geometry" />
        </mxCell>
        <mxCell id="8PStyAI-8pMgiDC35i6X-27" value="&lt;font style=&quot;font-size: 33px;&quot;&gt;eth1&lt;/font&gt;" style="text;strokeColor=none;align=center;fillColor=none;html=1;verticalAlign=middle;whiteSpace=wrap;rounded=0;" vertex="1" parent="1">
          <mxGeometry x="334" y="500" width="130" height="30" as="geometry" />
        </mxCell>
        <mxCell id="8PStyAI-8pMgiDC35i6X-29" value="" style="endArrow=none;html=1;rounded=0;" edge="1" parent="1" source="8PStyAI-8pMgiDC35i6X-6" target="8PStyAI-8pMgiDC35i6X-28">
          <mxGeometry width="50" height="50" relative="1" as="geometry">
            <mxPoint x="438" y="456" as="sourcePoint" />
            <mxPoint x="1740" y="452" as="targetPoint" />
          </mxGeometry>
        </mxCell>
        <mxCell id="8PStyAI-8pMgiDC35i6X-28" value="&lt;font style=&quot;font-size: 33px;&quot;&gt;eth2&lt;/font&gt;" style="text;strokeColor=none;align=center;fillColor=none;html=1;verticalAlign=middle;whiteSpace=wrap;rounded=0;" vertex="1" parent="1">
          <mxGeometry x="450" y="436.5" width="130" height="30" as="geometry" />
        </mxCell>
        <mxCell id="8PStyAI-8pMgiDC35i6X-30" value="&lt;font style=&quot;font-size: 33px;&quot;&gt;eth3&lt;/font&gt;" style="text;strokeColor=none;align=center;fillColor=none;html=1;verticalAlign=middle;whiteSpace=wrap;rounded=0;" vertex="1" parent="1">
          <mxGeometry x="410" y="370" width="130" height="30" as="geometry" />
        </mxCell>
        <mxCell id="8PStyAI-8pMgiDC35i6X-31" value="&lt;font style=&quot;font-size: 33px;&quot;&gt;eth2&lt;/font&gt;" style="text;strokeColor=none;align=center;fillColor=none;html=1;verticalAlign=middle;whiteSpace=wrap;rounded=0;" vertex="1" parent="1">
          <mxGeometry x="1570" y="436.5" width="130" height="30" as="geometry" />
        </mxCell>
        <mxCell id="8PStyAI-8pMgiDC35i6X-32" value="&lt;font style=&quot;font-size: 33px;&quot;&gt;eth1&lt;/font&gt;" style="text;strokeColor=none;align=center;fillColor=none;html=1;verticalAlign=middle;whiteSpace=wrap;rounded=0;" vertex="1" parent="1">
          <mxGeometry x="1720" y="790" width="130" height="30" as="geometry" />
        </mxCell>
        <mxCell id="8PStyAI-8pMgiDC35i6X-34" value="" style="endArrow=none;html=1;rounded=0;exitX=0.5;exitY=0;exitDx=0;exitDy=0;exitPerimeter=0;" edge="1" parent="1" source="8PStyAI-8pMgiDC35i6X-1" target="8PStyAI-8pMgiDC35i6X-33">
          <mxGeometry width="50" height="50" relative="1" as="geometry">
            <mxPoint x="1785" y="850" as="sourcePoint" />
            <mxPoint x="1779" y="478" as="targetPoint" />
            <Array as="points" />
          </mxGeometry>
        </mxCell>
        <mxCell id="8PStyAI-8pMgiDC35i6X-33" value="&lt;font style=&quot;font-size: 33px;&quot;&gt;eth1&lt;/font&gt;" style="text;strokeColor=none;align=center;fillColor=none;html=1;verticalAlign=middle;whiteSpace=wrap;rounded=0;" vertex="1" parent="1">
          <mxGeometry x="1720" y="500" width="130" height="30" as="geometry" />
        </mxCell>
        <mxCell id="8PStyAI-8pMgiDC35i6X-35" value="&lt;font style=&quot;font-size: 33px;&quot;&gt;eth3&lt;/font&gt;" style="text;strokeColor=none;align=center;fillColor=none;html=1;verticalAlign=middle;whiteSpace=wrap;rounded=0;" vertex="1" parent="1">
          <mxGeometry x="1630" y="350" width="130" height="30" as="geometry" />
        </mxCell>
        <mxCell id="8PStyAI-8pMgiDC35i6X-36" value="&lt;font style=&quot;font-size: 33px;&quot;&gt;eth3&lt;/font&gt;" style="text;strokeColor=none;align=center;fillColor=none;html=1;verticalAlign=middle;whiteSpace=wrap;rounded=0;" vertex="1" parent="1">
          <mxGeometry x="1130" y="93" width="130" height="30" as="geometry" />
        </mxCell>
        <mxCell id="8PStyAI-8pMgiDC35i6X-37" value="&lt;font style=&quot;font-size: 33px;&quot;&gt;eth2&lt;/font&gt;" style="text;strokeColor=none;align=center;fillColor=none;html=1;verticalAlign=middle;whiteSpace=wrap;rounded=0;" vertex="1" parent="1">
          <mxGeometry x="920" y="100" width="130" height="30" as="geometry" />
        </mxCell>
        <mxCell id="8PStyAI-8pMgiDC35i6X-38" value="&lt;font style=&quot;font-size: 33px;&quot;&gt;eth1&lt;/font&gt;" style="text;strokeColor=none;align=center;fillColor=none;html=1;verticalAlign=middle;whiteSpace=wrap;rounded=0;" vertex="1" parent="1">
          <mxGeometry x="1008" y="-200" width="130" height="30" as="geometry" />
        </mxCell>
        <mxCell id="8PStyAI-8pMgiDC35i6X-39" value="&lt;font style=&quot;font-size: 33px;&quot;&gt;eth1&lt;/font&gt;" style="text;strokeColor=none;align=center;fillColor=none;html=1;verticalAlign=middle;whiteSpace=wrap;rounded=0;" vertex="1" parent="1">
          <mxGeometry x="1020" y="-10" width="130" height="30" as="geometry" />
        </mxCell>
        <mxCell id="8PStyAI-8pMgiDC35i6X-43" value="Text" style="text;strokeColor=none;align=center;fillColor=none;html=1;verticalAlign=middle;whiteSpace=wrap;rounded=0;" vertex="1" parent="1">
          <mxGeometry x="1240" y="330" width="60" height="30" as="geometry" />
        </mxCell>
        <mxCell id="8PStyAI-8pMgiDC35i6X-44" value="&lt;font style=&quot;font-size: 31px;&quot;&gt;R01.MSK&lt;/font&gt;" style="text;strokeColor=none;align=center;fillColor=none;html=1;verticalAlign=middle;whiteSpace=wrap;rounded=0;fontStyle=1" vertex="1" parent="1">
          <mxGeometry x="170" y="448" width="190" height="30" as="geometry" />
        </mxCell>
        <mxCell id="8PStyAI-8pMgiDC35i6X-45" value="&lt;font style=&quot;font-size: 31px;&quot;&gt;R01.FRT&lt;br&gt;&lt;/font&gt;" style="text;strokeColor=none;align=center;fillColor=none;html=1;verticalAlign=middle;whiteSpace=wrap;rounded=0;fontStyle=1" vertex="1" parent="1">
          <mxGeometry x="1850" y="441.5" width="190" height="30" as="geometry" />
        </mxCell>
        <mxCell id="8PStyAI-8pMgiDC35i6X-46" value="&lt;font style=&quot;font-size: 31px;&quot;&gt;R01.BRL&lt;/font&gt;" style="text;strokeColor=none;align=center;fillColor=none;html=1;verticalAlign=middle;whiteSpace=wrap;rounded=0;fontStyle=1" vertex="1" parent="1">
          <mxGeometry x="1118" y="10" width="190" height="30" as="geometry" />
        </mxCell>
        <mxCell id="8PStyAI-8pMgiDC35i6X-47" value="&lt;font style=&quot;font-size: 31px;&quot;&gt;PC1&lt;/font&gt;" style="text;strokeColor=none;align=center;fillColor=none;html=1;verticalAlign=middle;whiteSpace=wrap;rounded=0;fontStyle=1" vertex="1" parent="1">
          <mxGeometry x="304" y="930" width="190" height="30" as="geometry" />
        </mxCell>
        <mxCell id="8PStyAI-8pMgiDC35i6X-49" value="&lt;font style=&quot;font-size: 31px;&quot;&gt;PC2&lt;/font&gt;" style="text;strokeColor=none;align=center;fillColor=none;html=1;verticalAlign=middle;whiteSpace=wrap;rounded=0;fontStyle=1" vertex="1" parent="1">
          <mxGeometry x="1684" y="930" width="190" height="30" as="geometry" />
        </mxCell>
        <mxCell id="8PStyAI-8pMgiDC35i6X-51" value="&lt;font style=&quot;font-size: 31px;&quot;&gt;PC3&lt;/font&gt;" style="text;strokeColor=none;align=center;fillColor=none;html=1;verticalAlign=middle;whiteSpace=wrap;rounded=0;fontStyle=1" vertex="1" parent="1">
          <mxGeometry x="990" y="-350" width="190" height="30" as="geometry" />
        </mxCell>
        <mxCell id="8PStyAI-8pMgiDC35i6X-52" value="&lt;font style=&quot;font-size: 27px;&quot;&gt;192.168.20.254&lt;/font&gt;" style="text;strokeColor=none;align=center;fillColor=none;html=1;verticalAlign=middle;whiteSpace=wrap;rounded=0;" vertex="1" parent="1">
          <mxGeometry x="460" y="871" width="220" height="30" as="geometry" />
        </mxCell>
        <mxCell id="8PStyAI-8pMgiDC35i6X-53" value="&lt;font style=&quot;font-size: 27px;&quot;&gt;192.168.20.1&lt;br&gt;&lt;/font&gt;" style="text;strokeColor=none;align=center;fillColor=none;html=1;verticalAlign=middle;whiteSpace=wrap;rounded=0;" vertex="1" parent="1">
          <mxGeometry x="365" y="540" width="220" height="30" as="geometry" />
        </mxCell>
        <mxCell id="8PStyAI-8pMgiDC35i6X-54" value="&lt;font style=&quot;font-size: 27px;&quot;&gt;10.10.3.1&lt;br&gt;&lt;/font&gt;" style="text;strokeColor=none;align=center;fillColor=none;html=1;verticalAlign=middle;whiteSpace=wrap;rounded=0;" vertex="1" parent="1">
          <mxGeometry x="570" y="418" width="220" height="30" as="geometry" />
        </mxCell>
        <mxCell id="8PStyAI-8pMgiDC35i6X-55" value="&lt;font style=&quot;font-size: 27px;&quot;&gt;10.10.3.2&lt;br&gt;&lt;/font&gt;" style="text;strokeColor=none;align=center;fillColor=none;html=1;verticalAlign=middle;whiteSpace=wrap;rounded=0;" vertex="1" parent="1">
          <mxGeometry x="1390" y="418" width="220" height="30" as="geometry" />
        </mxCell>
        <mxCell id="8PStyAI-8pMgiDC35i6X-56" value="&lt;font style=&quot;font-size: 27px;&quot;&gt;Netw:10.10.3.0&lt;br&gt;&lt;/font&gt;" style="text;strokeColor=none;align=center;fillColor=none;html=1;verticalAlign=middle;whiteSpace=wrap;rounded=0;" vertex="1" parent="1">
          <mxGeometry x="960" y="418" width="220" height="30" as="geometry" />
        </mxCell>
        <mxCell id="8PStyAI-8pMgiDC35i6X-58" value="&lt;font style=&quot;font-size: 27px;&quot;&gt;10.10.0.2&lt;br&gt;&lt;/font&gt;" style="text;strokeColor=none;align=center;fillColor=none;html=1;verticalAlign=middle;whiteSpace=wrap;rounded=0;" vertex="1" parent="1">
          <mxGeometry x="289" y="340" width="220" height="30" as="geometry" />
        </mxCell>
        <mxCell id="8PStyAI-8pMgiDC35i6X-59" value="&lt;font style=&quot;font-size: 27px;&quot;&gt;10.10.0.1&lt;br&gt;&lt;/font&gt;" style="text;strokeColor=none;align=center;fillColor=none;html=1;verticalAlign=middle;whiteSpace=wrap;rounded=0;" vertex="1" parent="1">
          <mxGeometry x="750" y="80" width="220" height="30" as="geometry" />
        </mxCell>
        <mxCell id="8PStyAI-8pMgiDC35i6X-60" value="&lt;font style=&quot;font-size: 27px;&quot;&gt;Netw:10.10.0.0&lt;br&gt;&lt;/font&gt;" style="text;strokeColor=none;align=center;fillColor=none;html=1;verticalAlign=middle;whiteSpace=wrap;rounded=0;" vertex="1" parent="1">
          <mxGeometry x="570" y="210" width="220" height="30" as="geometry" />
        </mxCell>
        <mxCell id="8PStyAI-8pMgiDC35i6X-61" value="&lt;font style=&quot;font-size: 27px;&quot;&gt;10.10.1.1&lt;br&gt;&lt;/font&gt;" style="text;strokeColor=none;align=center;fillColor=none;html=1;verticalAlign=middle;whiteSpace=wrap;rounded=0;" vertex="1" parent="1">
          <mxGeometry x="1190" y="70" width="220" height="30" as="geometry" />
        </mxCell>
        <mxCell id="8PStyAI-8pMgiDC35i6X-62" value="&lt;font style=&quot;font-size: 27px;&quot;&gt;10.10.1.2&lt;br&gt;&lt;/font&gt;" style="text;strokeColor=none;align=center;fillColor=none;html=1;verticalAlign=middle;whiteSpace=wrap;rounded=0;" vertex="1" parent="1">
          <mxGeometry x="1684" y="310" width="220" height="30" as="geometry" />
        </mxCell>
        <mxCell id="8PStyAI-8pMgiDC35i6X-64" value="&lt;font style=&quot;font-size: 27px;&quot;&gt;Netw:10.10.1,0&lt;br&gt;&lt;/font&gt;" style="text;strokeColor=none;align=center;fillColor=none;html=1;verticalAlign=middle;whiteSpace=wrap;rounded=0;" vertex="1" parent="1">
          <mxGeometry x="1420" y="190" width="220" height="30" as="geometry" />
        </mxCell>
        <mxCell id="8PStyAI-8pMgiDC35i6X-65" value="&lt;font style=&quot;font-size: 27px;&quot;&gt;192.168.10.254&lt;/font&gt;" style="text;strokeColor=none;align=center;fillColor=none;html=1;verticalAlign=middle;whiteSpace=wrap;rounded=0;" vertex="1" parent="1">
          <mxGeometry x="1140" y="-274.5" width="220" height="30" as="geometry" />
        </mxCell>
        <mxCell id="8PStyAI-8pMgiDC35i6X-66" value="&lt;font style=&quot;font-size: 27px;&quot;&gt;192.168.10.1&lt;/font&gt;" style="text;strokeColor=none;align=center;fillColor=none;html=1;verticalAlign=middle;whiteSpace=wrap;rounded=0;" vertex="1" parent="1">
          <mxGeometry x="1110" y="-50" width="220" height="30" as="geometry" />
        </mxCell>
        <mxCell id="8PStyAI-8pMgiDC35i6X-67" value="&lt;font style=&quot;font-size: 27px;&quot;&gt;192.168.30.254&lt;/font&gt;" style="text;strokeColor=none;align=center;fillColor=none;html=1;verticalAlign=middle;whiteSpace=wrap;rounded=0;" vertex="1" parent="1">
          <mxGeometry x="1525" y="855.5" width="220" height="30" as="geometry" />
        </mxCell>
        <mxCell id="8PStyAI-8pMgiDC35i6X-68" value="&lt;font style=&quot;font-size: 27px;&quot;&gt;192.168.30.1&lt;/font&gt;" style="text;strokeColor=none;align=center;fillColor=none;html=1;verticalAlign=middle;whiteSpace=wrap;rounded=0;" vertex="1" parent="1">
          <mxGeometry x="1530" y="540" width="220" height="30" as="geometry" />
        </mxCell>
      </root>
    </mxGraphModel>
  </diagram>
</mxfile>
